<svg width="108" height="7" viewBox="0 0 108 7" fill="none" xmlns="http://www.w3.org/2000/svg">
<path d="M9.08863 1.06372L7.15486 6.7561H6.71286L4.94485 1.64261L3.16302 6.7561H2.72102L0.773438 1.06372H1.21544L2.95583 6.19099L4.73766 1.06372H5.13822L6.92005 6.20477L8.67425 1.06372H9.07482H9.08863Z" fill="#CFF6FF"/>
<path d="M11.0361 4.63354C11.0361 3.36551 11.9478 2.4834 13.1633 2.4834C14.3788 2.4834 15.2904 3.37929 15.2904 4.63354C15.2904 5.8878 14.3788 6.78369 13.1633 6.78369C11.9478 6.78369 11.0361 5.8878 11.0361 4.63354ZM14.876 4.63354C14.876 3.57225 14.144 2.84176 13.1633 2.84176C12.1826 2.84176 11.4505 3.57225 11.4505 4.63354C11.4505 5.69483 12.1826 6.42533 13.1633 6.42533C14.144 6.42533 14.876 5.69483 14.876 4.63354Z" fill="#CFF6FF"/>
<path d="M20.2079 2.4834V2.88311C20.2079 2.88311 20.1388 2.88311 20.1112 2.88311C19.1582 2.88311 18.6056 3.50334 18.6056 4.56463V6.78369H18.2051V2.53853H18.5918V3.46199C18.8543 2.84176 19.4206 2.49718 20.2079 2.49718V2.4834Z" fill="#CFF6FF"/>
<path d="M23.0393 0.719238H23.4537V6.75619H23.0393V0.719238Z" fill="#CFF6FF"/>
<path d="M30.581 0.719238V6.75619H30.1805V5.75003C29.849 6.41161 29.1998 6.78375 28.4401 6.78375C27.2384 6.78375 26.3406 5.90164 26.3406 4.63361C26.3406 3.36557 27.2522 2.48346 28.4401 2.48346C29.1998 2.48346 29.8352 2.8556 30.1805 3.5034V0.733019H30.581V0.719238ZM30.1805 4.63361C30.1805 3.57232 29.4484 2.84182 28.4677 2.84182C27.487 2.84182 26.755 3.57232 26.755 4.63361C26.755 5.6949 27.487 6.42539 28.4677 6.42539C29.4484 6.42539 30.1805 5.6949 30.1805 4.63361Z" fill="#CFF6FF"/>
<path d="M37.2112 4.63354C37.2112 3.36551 38.1228 2.4834 39.3659 2.4834C40.0428 2.4834 40.6367 2.74527 40.982 3.26903L40.6781 3.48956C40.3743 3.06228 39.8908 2.85554 39.3659 2.85554C38.3576 2.85554 37.6256 3.57225 37.6256 4.64733C37.6256 5.7224 38.3576 6.43912 39.3659 6.43912C39.8908 6.43912 40.3743 6.23237 40.6781 5.8051L40.982 6.02563C40.6367 6.5356 40.0428 6.81126 39.3659 6.81126C38.1228 6.81126 37.2112 5.91536 37.2112 4.66111V4.63354Z" fill="#CFF6FF"/>
<path d="M46.6726 4.06855V6.75624H46.2859V5.99817C46.0096 6.48058 45.4986 6.7838 44.7527 6.7838C43.7996 6.7838 43.2195 6.3014 43.2195 5.5709C43.2195 4.9231 43.6201 4.38556 44.8079 4.38556H46.2721V4.04099C46.2721 3.25536 45.8439 2.82808 45.0013 2.82808C44.4212 2.82808 43.8825 3.04861 43.5372 3.36562L43.33 3.07618C43.7582 2.70404 44.3797 2.46973 45.0289 2.46973C46.0787 2.46973 46.6726 3.00727 46.6726 4.05477V4.06855ZM46.2721 5.50199V4.70257H44.8217C43.9377 4.70257 43.6339 5.07471 43.6339 5.55712C43.6339 6.10844 44.062 6.45301 44.8217 6.45301C45.5814 6.45301 46.0373 6.10844 46.2859 5.50199H46.2721Z" fill="#CFF6FF"/>
<path d="M52.0044 2.4834V2.88311C52.0044 2.88311 51.9354 2.88311 51.9077 2.88311C50.9685 2.88311 50.4022 3.50334 50.4022 4.56463V6.78369H49.9878V2.53853H50.3745V3.46199C50.637 2.84176 51.2033 2.49718 52.0044 2.49718V2.4834Z" fill="#CFF6FF"/>
<path d="M58.4272 4.73003H54.7669C54.8083 5.73619 55.5542 6.42533 56.5763 6.42533C57.115 6.42533 57.6123 6.23238 57.9438 5.83267L58.1786 6.09454C57.8057 6.54938 57.2117 6.78369 56.5763 6.78369C55.2918 6.78369 54.3801 5.8878 54.3801 4.63354C54.3801 3.37929 55.2503 2.4834 56.4244 2.4834C57.5985 2.4834 58.4548 3.36551 58.4548 4.61976C58.4548 4.64733 58.4548 4.68868 58.4548 4.73003H58.4272ZM54.7669 4.41302H58.0267C57.9714 3.48956 57.2946 2.82797 56.3968 2.82797C55.4989 2.82797 54.8359 3.47577 54.7669 4.41302Z" fill="#CFF6FF"/>
<path d="M64.4358 6.24627L64.6292 5.91547C64.9607 6.19113 65.5408 6.42544 66.1624 6.42544C67.0602 6.42544 67.4193 6.10844 67.4193 5.62603C67.4193 4.38556 64.6015 5.29524 64.6015 3.6275C64.6015 2.9797 65.1402 2.46973 66.2176 2.46973C66.7563 2.46973 67.3503 2.63512 67.6818 2.88322L67.4884 3.21401C67.1292 2.95213 66.6596 2.82808 66.2038 2.82808C65.375 2.82808 65.0021 3.17266 65.0021 3.6275C65.0021 4.90932 67.8199 3.99964 67.8199 5.62603C67.8199 6.31518 67.2259 6.7838 66.1347 6.7838C65.4303 6.7838 64.7673 6.54949 64.4358 6.23248V6.24627Z" fill="#CFF6FF"/>
<path d="M74.2014 4.73003H70.541C70.5825 5.73619 71.3284 6.42533 72.3505 6.42533C72.8892 6.42533 73.3865 6.23238 73.718 5.83267L73.9528 6.09454C73.5798 6.54938 72.9859 6.78369 72.3505 6.78369C71.0659 6.78369 70.1543 5.8878 70.1543 4.63354C70.1543 3.37929 71.0245 2.4834 72.1986 2.4834C73.3726 2.4834 74.229 3.36551 74.229 4.61976C74.229 4.64733 74.229 4.68868 74.229 4.73003H74.2014ZM70.541 4.41302H73.8008C73.7456 3.48956 73.0688 2.82797 72.1709 2.82797C71.2731 2.82797 70.6101 3.47577 70.541 4.41302Z" fill="#CFF6FF"/>
<path d="M79.1185 2.4834V2.88311C79.1185 2.88311 79.0495 2.88311 79.0219 2.88311C78.0688 2.88311 77.5163 3.50334 77.5163 4.56463V6.78369H77.1157V2.53853H77.5025V3.46199C77.7649 2.84176 78.3312 2.49718 79.1185 2.49718V2.4834Z" fill="#CFF6FF"/>
<path d="M85.5968 2.51099L83.6769 6.75615H83.2625L81.3425 2.51099H81.7707L83.4697 6.31509L85.1824 2.51099H85.5968Z" fill="#CFF6FF"/>
<path d="M87.9863 1.14647C87.9863 0.967286 88.1383 0.815674 88.3178 0.815674C88.4974 0.815674 88.6493 0.967286 88.6493 1.14647C88.6493 1.32564 88.4974 1.47726 88.3178 1.47726C88.1383 1.47726 87.9863 1.32564 87.9863 1.14647ZM88.1106 2.51098H88.5112V6.75614H88.1106V2.51098Z" fill="#CFF6FF"/>
<path d="M91.4255 4.63354C91.4255 3.36551 92.3372 2.4834 93.5803 2.4834C94.2571 2.4834 94.8511 2.74527 95.1964 3.26903L94.8925 3.48956C94.5886 3.06228 94.1052 2.85554 93.5803 2.85554C92.572 2.85554 91.8399 3.57225 91.8399 4.64733C91.8399 5.7224 92.572 6.43912 93.5803 6.43912C94.1052 6.43912 94.5886 6.23237 94.8925 5.8051L95.1964 6.02563C94.8511 6.5356 94.2571 6.81126 93.5803 6.81126C92.3372 6.81126 91.4255 5.91536 91.4255 4.66111V4.63354Z" fill="#CFF6FF"/>
<path d="M101.44 4.73003H97.7793C97.8208 5.73619 98.5666 6.42533 99.5888 6.42533C100.127 6.42533 100.625 6.23238 100.956 5.83267L101.191 6.09454C100.818 6.54938 100.224 6.78369 99.5888 6.78369C98.3042 6.78369 97.3926 5.8878 97.3926 4.63354C97.3926 3.37929 98.2628 2.4834 99.4368 2.4834C100.611 2.4834 101.467 3.36551 101.467 4.61976C101.467 4.64733 101.467 4.68868 101.467 4.73003H101.44ZM97.7793 4.41302H101.039C100.984 3.48956 100.307 2.82797 99.4092 2.82797C98.5114 2.82797 97.8484 3.47577 97.7793 4.41302Z" fill="#CFF6FF"/>
<path d="M103.719 6.24627L103.912 5.91547C104.244 6.19113 104.824 6.42544 105.445 6.42544C106.343 6.42544 106.702 6.10844 106.702 5.62603C106.702 4.38556 103.884 5.29524 103.884 3.6275C103.884 2.9797 104.423 2.46973 105.501 2.46973C106.039 2.46973 106.633 2.63512 106.965 2.88322L106.771 3.21401C106.412 2.95213 105.943 2.82808 105.487 2.82808C104.658 2.82808 104.285 3.17266 104.285 3.6275C104.285 4.90932 107.103 3.99964 107.103 5.62603C107.103 6.31518 106.509 6.7838 105.418 6.7838C104.713 6.7838 104.05 6.54949 103.719 6.23248V6.24627Z" fill="#CFF6FF"/>
</svg>
