<svg width="87" height="22" viewBox="0 0 87 22" fill="none" xmlns="http://www.w3.org/2000/svg">
<path d="M0 0.868408H11.8789V4.94817H4.65485V9.08307H11.3402V13.1353H4.65485V21.3913H0V0.868408Z" fill="#CFF6FF"/>
<path d="M18.5228 21.3912H13.7712V0H18.5228V21.3912Z" fill="#CFF6FF"/>
<path d="M27.0312 21.7633C25.6362 21.7633 24.3792 21.4739 23.3018 20.9088C22.2106 20.3299 21.3681 19.5443 20.7465 18.5243C20.1249 17.5182 19.821 16.3604 19.821 15.051C19.821 13.7416 20.1249 12.5839 20.7465 11.5639C21.3681 10.544 22.2106 9.73077 23.3018 9.15189C24.393 8.55922 25.6362 8.26978 27.0312 8.26978C28.4263 8.26978 29.6694 8.55922 30.733 9.15189C31.7966 9.74456 32.6391 10.544 33.2469 11.5639C33.8547 12.5839 34.1447 13.7416 34.1447 15.051C34.1447 16.3604 33.8408 17.5182 33.2469 18.5243C32.6391 19.5305 31.8104 20.3299 30.733 20.9088C29.6694 21.4877 28.4263 21.7633 27.0312 21.7633ZM27.0312 17.8765C27.5699 17.8765 28.0396 17.7525 28.4263 17.5182C28.8269 17.2839 29.1307 16.9393 29.3517 16.512C29.5727 16.0709 29.6832 15.5885 29.6832 15.0372C29.6832 14.4859 29.5727 13.9759 29.3517 13.5487C29.1307 13.1076 28.8269 12.7768 28.4263 12.5287C28.0257 12.2806 27.5699 12.1566 27.0312 12.1566C26.4925 12.1566 26.0229 12.2806 25.6223 12.5287C25.2218 12.7768 24.9041 13.1214 24.6831 13.5487C24.4621 13.9897 24.3516 14.4859 24.3516 15.0372C24.3516 15.5885 24.4621 16.0709 24.6831 16.512C24.9041 16.9531 25.2218 17.2839 25.6223 17.5182C26.0229 17.7525 26.4925 17.8765 27.0312 17.8765Z" fill="#CFF6FF"/>
<path d="M39.808 21.3913H35.0703V8.62824H39.808V10.5992H39.7252C39.808 10.3649 40.0152 10.0617 40.3329 9.68953C40.6506 9.31739 41.1064 8.9866 41.6866 8.69716C42.2667 8.40772 42.9849 8.2561 43.8137 8.2561C44.4076 8.2561 44.9463 8.35258 45.4436 8.53176C45.9408 8.71094 46.3 8.89012 46.5348 9.05552L44.6977 12.901C44.5458 12.7218 44.2971 12.5426 43.9242 12.3497C43.5513 12.1567 43.0954 12.0602 42.5429 12.0602C41.9076 12.0602 41.3827 12.2256 40.9821 12.5426C40.5677 12.8596 40.2777 13.2455 40.0843 13.7142C39.8909 14.169 39.7942 14.5963 39.7942 15.0098V21.4189L39.808 21.3913Z" fill="#CFF6FF"/>
<path d="M50.3607 16.0021C50.3884 16.457 50.5403 16.8705 50.8028 17.215C51.0652 17.5734 51.4243 17.849 51.8801 18.042C52.336 18.235 52.8885 18.3314 53.5377 18.3314C54.1454 18.3314 54.6841 18.2763 55.1675 18.1523C55.651 18.0282 56.0654 17.8766 56.4245 17.6836C56.7836 17.4907 57.0599 17.2977 57.2532 17.1048L59.0903 20.0268C58.8141 20.3024 58.4549 20.5781 57.9853 20.84C57.5157 21.1018 56.8941 21.3086 56.1344 21.4878C55.3609 21.6531 54.394 21.7496 53.22 21.7496C51.7973 21.7496 50.5403 21.4878 49.4353 20.9502C48.3303 20.4265 47.4739 19.6408 46.8523 18.6209C46.2308 17.6009 45.9131 16.3329 45.9131 14.8444C45.9131 13.6039 46.1893 12.4875 46.728 11.4813C47.2667 10.4751 48.054 9.70329 49.09 9.11063C50.1259 8.51796 51.3829 8.22852 52.847 8.22852C54.3112 8.22852 55.4438 8.47661 56.4659 8.98658C57.4881 9.49655 58.2754 10.2546 58.8279 11.247C59.3804 12.2394 59.6566 13.4936 59.6566 14.9822V15.4784C59.6566 15.7265 59.6566 15.9056 59.629 15.9883H50.3746L50.3607 16.0021ZM55.209 13.535C55.209 13.2042 55.1123 12.8734 54.9465 12.5426C54.7808 12.2118 54.5322 11.9361 54.2007 11.7294C53.8692 11.5226 53.441 11.4124 52.9299 11.4124C52.4188 11.4124 51.963 11.5226 51.6039 11.7294C51.2448 11.9361 50.9823 12.198 50.7889 12.5288C50.5956 12.8458 50.4989 13.1904 50.4574 13.5488H55.209V13.535Z" fill="#CFF6FF"/>
<path d="M70.8035 21.3912V19.3237C70.7069 19.5305 70.472 19.8337 70.0991 20.2196C69.7262 20.6193 69.2151 20.9639 68.5935 21.2809C67.972 21.5979 67.2399 21.7495 66.4111 21.7495C65.168 21.7495 64.0768 21.4463 63.1375 20.8398C62.1983 20.2334 61.48 19.4202 60.9551 18.4003C60.4303 17.3803 60.1816 16.2501 60.1816 15.0096C60.1816 13.7692 60.4441 12.639 60.9551 11.619C61.4662 10.5991 62.1983 9.78588 63.1375 9.16565C64.0768 8.5592 65.168 8.24219 66.4111 8.24219C67.2123 8.24219 67.9167 8.36623 68.5106 8.62811C69.1184 8.8762 69.6018 9.17943 69.9748 9.52401C70.3477 9.86858 70.6102 10.1856 70.7483 10.475V8.61433H75.4584V21.3774H70.8035V21.3912ZM64.8227 15.0234C64.8227 15.6023 64.9608 16.1261 65.2232 16.5809C65.4995 17.0357 65.8586 17.4079 66.3006 17.656C66.7564 17.9178 67.2537 18.0419 67.8062 18.0419C68.3587 18.0419 68.8836 17.9178 69.3118 17.656C69.7538 17.3941 70.0991 17.0357 70.3477 16.5809C70.5964 16.1261 70.7345 15.6023 70.7345 15.0234C70.7345 14.4445 70.6102 13.9208 70.3477 13.4659C70.0991 13.0111 69.7538 12.639 69.3118 12.3771C68.8698 12.1152 68.3725 11.9774 67.8062 11.9774C67.2399 11.9774 66.7564 12.1152 66.3006 12.3771C65.8448 12.639 65.4857 13.0111 65.2232 13.4659C64.947 13.9208 64.8227 14.4445 64.8227 15.0234Z" fill="#CFF6FF"/>
<path d="M76.0662 8.62816H78.2486V3.39062H82.931V8.62816H85.7902V12.515H82.931V16.071C82.931 16.5947 83.0139 17.022 83.1658 17.3528C83.3178 17.6836 83.6079 17.849 84.0222 17.849C84.2985 17.849 84.5471 17.7801 84.7405 17.656C84.9339 17.532 85.0582 17.4493 85.0996 17.4079L86.7157 20.771C86.6466 20.8399 86.4118 20.9502 86.0389 21.1156C85.6659 21.2809 85.1825 21.4326 84.6024 21.5704C84.0222 21.7082 83.373 21.7771 82.6548 21.7771C81.384 21.7771 80.3205 21.4188 79.4917 20.7021C78.6629 19.9853 78.2486 18.8689 78.2486 17.3666V12.5287H76.0662V8.64194V8.62816Z" fill="#CFF6FF"/>
</svg>
