<svg width="395" height="460" viewBox="0 0 395 460" fill="none" xmlns="http://www.w3.org/2000/svg">
<path d="M29.8742 301.361C16.0861 279.373 6.8941 255.226 2.70361 229.73L7.97551 228.921C12.166 253.742 20.9525 277.214 34.4702 298.528L30.0094 301.361H29.8742Z" fill="white"/>
<path d="M177.217 314.985H174.513V312.287L177.217 314.985Z" fill="white"/>
<path d="M0.675885 213.408C0.270354 208.147 0 202.616 0 197.085C0 89.1671 88.0002 0.674487 196.142 0C196.142 0 196.412 0 196.682 0H197.223C251.699 0 302.256 21.5836 339.835 60.434C375.386 97.261 394.987 145.824 394.987 197.085V197.625H389.715V197.085C389.715 147.173 370.655 99.9589 336.05 64.2111C299.552 26.305 250.348 5.39589 197.629 5.261L196.818 2.56305V5.261H196.277C90.9741 6.07038 5.2719 92.1349 5.2719 197.085C5.2719 202.481 5.54225 207.877 5.94779 213.003L0.675885 213.408Z" fill="#CFF6FF"/>
<path d="M358.624 311.343L354.298 308.241C369.979 286.252 380.658 261.701 385.93 235.261C387.011 229.73 387.957 224.065 388.498 218.534C389.309 212.059 389.715 205.044 389.715 197.625H394.987C394.987 205.179 394.581 212.329 393.77 219.074C393.094 224.874 392.283 230.675 391.066 236.34C385.524 263.455 374.575 288.681 358.489 311.343" fill="#CFF6FF"/>
<path d="M29.8735 301.361C16.0855 279.372 6.89343 255.226 2.70295 229.73C1.75671 224.334 1.08082 218.803 0.675293 213.407L5.94719 213.003C6.35272 218.264 7.02861 223.66 7.97485 228.921C12.1653 253.742 20.9518 277.214 34.4695 298.663L30.0087 301.495L29.8735 301.361Z" fill="#CFF6FF"/>
<path d="M310.772 231.888L305.5 230.944C306.717 224.334 307.393 217.589 307.393 210.844C307.393 150.41 258.189 101.308 197.629 101.308C137.07 101.308 87.7304 150.41 87.7304 210.844C87.7304 216.645 88.1359 222.311 89.0822 227.841L83.8103 228.651C82.864 222.85 82.4585 216.78 82.4585 210.844C82.4585 147.443 134.096 95.9117 197.629 95.9117C261.162 95.9117 312.8 147.443 312.8 210.844C312.8 217.994 312.124 225.008 310.908 232.023" fill="#CFF6FF"/>
<path d="M246.292 111.965L245.211 106.839C254.808 104.816 264.406 102.118 273.733 98.8801C298.606 89.9768 320.234 76.622 336.05 60.5692L339.835 64.3463C323.343 81.0736 301.174 94.8331 275.491 104.006C266.028 107.379 256.16 110.211 246.292 112.235" fill="#CFF6FF"/>
<path d="M149.235 112.099H148.694C137.745 109.806 127.201 106.838 117.063 103.061C92.4605 94.0231 70.9674 80.6683 54.8813 64.4806L58.6663 60.7035C74.0765 76.3516 94.8937 89.1668 118.955 98.0701C128.688 101.712 139.097 104.68 149.776 106.838L149.235 109.401V112.099Z" fill="#CFF6FF"/>
<path d="M111.25 142.586L105.979 142.182C108.277 127.343 111.386 113.314 115.441 99.824C133.284 40.1994 164.916 1.07918 196.142 0C196.142 0 196.547 0 196.817 0H197.628C228.854 0.269795 260.08 39.7947 277.248 100.633C280.492 112.235 283.195 124.375 285.223 136.921L279.951 137.73C277.924 125.32 275.22 113.314 272.111 101.982C255.755 44.3812 225.88 5.53079 197.493 5.261L196.682 2.56305V5.261C167.754 6.20528 137.34 44.7859 120.442 101.308C116.522 114.528 113.413 128.287 111.115 142.452" fill="#CFF6FF"/>
<path d="M198.845 2.69812H193.573V98.6101H198.845V2.69812Z" fill="#CFF6FF"/>
<path d="M391.742 194.387H309.149V199.783H391.742V194.387Z" fill="#CFF6FF"/>
<path d="M85.9726 194.387H2.70361V199.783H85.9726V194.387Z" fill="#CFF6FF"/>
<path d="M197.899 456.628L192.221 446.375C182.083 428.029 154.372 394.035 135.852 384.727C129.905 381.76 124.092 378.927 118.55 376.364C100.166 367.595 84.2148 360.041 67.5881 345.472L66.6418 344.663C52.3131 331.982 39.8768 317.279 29.8737 301.226L29.333 300.551V299.607C31.631 277.214 42.4452 256.71 59.6126 241.871L60.8292 240.792L62.3162 241.466C106.519 260.622 143.828 295.83 167.484 340.616C168.025 341.56 168.43 342.504 168.971 343.449L169.241 344.123V344.933C164.24 386.481 186.814 426.006 194.114 438.956C196.412 443.003 196.952 443.947 196.952 444.892L197.628 456.493L197.899 456.628Z" fill="#CFF6FF"/>
<path d="M197.494 272.223L196.954 273.437C196.278 274.651 195.737 275.595 195.061 276.674C194.52 277.484 193.98 278.293 193.439 279.237C186.815 290.839 181.273 303.114 177.083 315.795L175.055 321.46L172.081 316.199C159.239 292.997 129.095 266.557 106.115 248.481C93.1377 238.364 83.5402 231.754 83.5402 231.619L79.4849 228.921L84.0809 227.032C90.8397 224.334 97.8689 222.446 105.033 221.367C108.953 220.827 113.144 220.557 117.199 220.557C150.588 220.557 181.814 240.387 196.818 271.009L197.359 272.223H197.494Z" fill="#CFF6FF"/>
<path d="M359.029 308.78V310.669L358.489 311.343C349.297 324.158 338.753 335.76 327.128 345.877C311.447 359.501 291.982 369.619 273.057 379.331C266.163 382.974 259.269 386.481 252.645 390.258C219.932 408.469 200.332 452.985 200.197 453.39L197.358 460L195.195 453.12C194.789 451.501 193.708 449.208 192.086 446.51L191.816 445.566C191.545 444.891 190.599 443.273 189.653 441.654C182.083 428.299 158.832 387.695 163.969 344.393C165.862 334.276 168.43 324.293 171.674 314.581V314.176C176.135 301.226 181.812 288.545 188.571 276.809C189.653 274.786 190.869 272.762 192.086 270.739C198.439 260.352 205.739 250.504 213.849 241.466L214.931 240.522C230.611 227.707 250.347 220.692 270.624 220.692C283.871 220.692 296.578 223.525 308.473 229.191L313.61 231.619L308.473 233.912C272.246 250.504 239.533 286.522 220.743 330.499C212.362 350.059 206.55 371.238 203.711 393.361C210.876 375.15 224.123 347.091 245.21 318.762C261.837 296.37 281.032 277.079 302.255 261.431L303.337 260.622C311.447 254.821 319.828 249.425 328.479 244.569L330.237 243.625L331.724 244.974C349.297 261.836 359.165 284.499 359.165 308.78" fill="#5BD867"/>
</svg>
