<svg width="22" height="20" viewBox="0 0 22 20" fill="none" xmlns="http://www.w3.org/2000/svg">
<path d="M10.875 18.4981C10.9583 18.4981 11.0542 18.4773 11.1625 18.4355C11.2708 18.3938 11.3583 18.3396 11.425 18.2728L19.85 9.81227C20.0667 9.59533 20.2292 9.34779 20.3375 9.06966C20.4458 8.79155 20.5 8.51343 20.5 8.23529C20.5 7.95161 20.4458 7.66792 20.3375 7.38423C20.2292 7.10054 20.0667 6.85023 19.85 6.63329L15.35 2.12766C15.1333 1.91072 14.8833 1.74802 14.6 1.63955C14.3167 1.53108 14.0333 1.47685 13.75 1.47685C13.4722 1.47685 13.1944 1.53108 12.9167 1.63955C12.6389 1.74802 12.3917 1.91072 12.175 2.12766L11.725 2.57822L13.75 4.63079C13.9667 4.86441 14.1583 5.13559 14.325 5.44431C14.4917 5.75302 14.575 6.09095 14.575 6.45807C14.575 7.0922 14.3292 7.65123 13.8375 8.13517C13.3458 8.61911 12.7833 8.86108 12.15 8.86108C11.7333 8.86108 11.3875 8.7985 11.1125 8.67334C10.8375 8.54819 10.586 8.37012 10.3579 8.13915L8.525 6.30788L4 10.8385C3.91667 10.922 3.85833 11.0098 3.825 11.102C3.79167 11.1943 3.775 11.2931 3.775 11.3984C3.775 11.6092 3.84583 11.7856 3.9875 11.9274C4.12917 12.0693 4.30556 12.1402 4.51668 12.1402C4.62223 12.1402 4.72083 12.1151 4.8125 12.0651C4.90417 12.015 4.98333 11.9566 5.05 11.8899L8.5 8.43554L9.55 9.48686L6.125 12.9161C6.04167 12.9996 5.98333 13.0914 5.95 13.1915C5.91667 13.2916 5.9 13.3917 5.9 13.4919C5.9 13.6921 5.975 13.8673 6.125 14.0175C6.275 14.1677 6.45 14.2428 6.65 14.2428C6.75 14.2428 6.84583 14.2219 6.9375 14.1802C7.02917 14.1385 7.10833 14.0843 7.175 14.0175L10.625 10.5632L11.675 11.6145L8.25 15.0438C8.18333 15.1106 8.12917 15.1968 8.0875 15.3025C8.04583 15.4082 8.025 15.5138 8.025 15.6195C8.025 15.8198 8.1 15.995 8.25 16.1452C8.4 16.2954 8.575 16.3705 8.775 16.3705C8.875 16.3705 8.96667 16.3538 9.05 16.3204C9.13333 16.287 9.21667 16.2286 9.3 16.1452L12.75 12.6909L13.8 13.7422L10.35 17.1965C10.2667 17.2799 10.2083 17.3717 10.175 17.4718C10.1417 17.572 10.125 17.6637 10.125 17.7472C10.125 17.9808 10.1917 18.1644 10.325 18.2979C10.4583 18.4314 10.6417 18.4981 10.875 18.4981ZM10.8766 20C10.3255 20 9.83333 19.7956 9.4 19.3867C8.96667 18.9779 8.70833 18.4721 8.625 17.8694C8.05833 17.7879 7.58333 17.5553 7.2 17.1715C6.81667 16.7877 6.58333 16.3121 6.5 15.7447C5.93333 15.6612 5.4625 15.4234 5.0875 15.0313C4.7125 14.6391 4.48333 14.1677 4.4 13.617C3.78333 13.5336 3.275 13.2833 2.875 12.8661C2.475 12.4489 2.275 11.9483 2.275 11.3642C2.275 11.0805 2.33103 10.7964 2.4431 10.5119C2.55517 10.2274 2.7158 9.97751 2.925 9.7622L8.525 4.15519L11.275 6.90864C11.4083 7.04214 11.5528 7.14643 11.7083 7.22153C11.8639 7.29662 12.0195 7.33417 12.175 7.33417C12.3917 7.33417 12.5958 7.23821 12.7875 7.04631C12.9792 6.8544 13.075 6.64869 13.075 6.42919C13.075 6.33163 13.0458 6.22028 12.9875 6.09512C12.9292 5.96996 12.8333 5.84063 12.7 5.70713L9.125 2.12766C8.90833 1.91072 8.65833 1.74802 8.375 1.63955C8.09167 1.53108 7.80833 1.47685 7.525 1.47685C7.24722 1.47685 6.96944 1.53108 6.69167 1.63955C6.41389 1.74802 6.16716 1.90953 5.95147 2.12408L2.15 5.93242C1.91667 6.16604 1.75417 6.41218 1.6625 6.67084C1.57083 6.9295 1.51667 7.22153 1.5 7.54693C1.48333 7.87234 1.54583 8.1894 1.6875 8.49812C1.82917 8.80684 2 9.08636 2.2 9.33667L1.125 10.413C0.791667 10.0459 0.520833 9.60367 0.3125 9.08636C0.104167 8.56904 0 8.04339 0 7.50939C0 7.00876 0.0958333 6.52899 0.2875 6.07009C0.479167 5.61118 0.75 5.20651 1.1 4.85607L4.875 1.07635C5.24167 0.70922 5.65661 0.438048 6.11982 0.262829C6.58306 0.0876095 7.05806 0 7.54483 0C8.03161 0 8.50417 0.0876095 8.9625 0.262829C9.42083 0.438048 9.83333 0.70922 10.2 1.07635L10.65 1.52691L11.1 1.07635C11.4667 0.70922 11.8816 0.438048 12.3448 0.262829C12.8081 0.0876095 13.2831 0 13.7698 0C14.2566 0 14.7292 0.0876095 15.1875 0.262829C15.6458 0.438048 16.0583 0.70922 16.425 1.07635L20.9 5.55695C21.2667 5.92407 21.5417 6.34153 21.725 6.80934C21.9083 7.27714 22 7.75273 22 8.23612C22 8.71951 21.9083 9.19065 21.725 9.64956C21.5417 10.1085 21.2667 10.5215 20.9 10.8886L12.475 19.3242C12.2583 19.5411 12.0122 19.708 11.7367 19.8248C11.4612 19.9416 11.1745 20 10.8766 20Z" fill="white"/>
</svg>
