<svg width="60" height="54" viewBox="0 0 60 54" fill="none" xmlns="http://www.w3.org/2000/svg">
<path d="M29.5094 53.25C28.6219 53.25 27.7714 53.0898 26.9578 52.7693C26.1443 52.4488 25.417 51.9681 24.776 51.3271L4.95521 31.4323L4.40052 30.8776C4.22795 30.705 4.06771 30.5201 3.91979 30.3229H10.1323L27.9563 48.1469C28.2028 48.3934 28.4444 48.566 28.681 48.6646C28.9177 48.7632 29.1938 48.8125 29.5094 48.8125C29.8249 48.8125 30.101 48.7632 30.3377 48.6646C30.5744 48.566 30.816 48.3934 31.0625 48.1469L50.8094 28.326C52.0913 27.0441 53.0528 25.5526 53.6938 23.8516C54.3347 22.1505 54.6552 20.3632 54.6552 18.4896C54.6552 14.6931 53.4239 11.4019 50.9613 8.61615C48.4987 5.83038 45.4204 4.4375 41.7265 4.4375C39.9915 4.4375 38.3227 4.79497 36.7203 5.5099C35.1179 6.22483 33.725 7.22326 32.5417 8.50521L30.5448 10.65C30.3969 10.7979 30.249 10.9212 30.101 11.0198C29.9531 11.1184 29.7559 11.1677 29.5094 11.1677C29.2628 11.1677 29.0499 11.1212 28.8707 11.0283C28.6913 10.9354 28.5345 10.8093 28.4 10.65L26.4031 8.50521C25.2063 7.23234 23.8101 6.23617 22.2144 5.5167C20.6187 4.79723 18.958 4.4375 17.2323 4.4375C13.7809 4.4375 10.8719 5.67014 8.50521 8.13542C6.13854 10.6007 4.78264 13.559 4.4375 17.0104H0C0.394444 12.3264 2.1941 8.32031 5.39896 4.99219C8.60382 1.66406 12.5483 0 17.2323 0C19.599 0 21.83 0.468403 23.9255 1.40521C26.021 2.34201 27.8823 3.64861 29.5094 5.325C31.0872 3.64861 32.9238 2.34201 35.0193 1.40521C37.1148 0.468403 39.3458 0 41.7125 0C46.6431 0 50.7724 1.82431 54.1005 5.47292C57.4286 9.12153 59.0927 13.4604 59.0927 18.4896C59.0927 20.9056 58.6736 23.2229 57.8354 25.4417C56.9972 27.6604 55.7399 29.6326 54.0635 31.3583L34.1688 51.3271C33.5278 51.9681 32.8128 52.4488 32.024 52.7693C31.2351 53.0898 30.3969 53.25 29.5094 53.25ZM29.1396 25.8854H0V21.4479H40.9729C42.0207 21.4479 42.8989 21.0948 43.6077 20.3885C44.3165 19.6822 44.6708 18.807 44.6708 17.7629C44.6708 16.7189 44.3165 15.8394 43.6077 15.1245C42.8989 14.4095 42.0207 14.0521 40.9729 14.0521C40.2826 14.0521 39.6293 14.2247 39.013 14.5698C38.3967 14.9149 37.9406 15.408 37.6448 16.049L33.3552 14.8656C33.9469 13.2878 34.933 12.0182 36.3135 11.0568C37.6941 10.0953 39.2472 9.61458 40.9729 9.61458C43.2327 9.61458 45.1536 10.4064 46.7355 11.99C48.3174 13.5735 49.1083 15.4964 49.1083 17.7587C49.1083 20.021 48.3174 21.941 46.7355 23.5187C45.1536 25.0965 43.2327 25.8854 40.9729 25.8854H36.3875C36.6833 26.4278 36.9052 27.0034 37.0531 27.6123C37.201 28.2213 37.275 28.8783 37.275 29.5833C37.275 31.8432 36.4841 33.764 34.9022 35.3459C33.3203 36.9278 31.3994 37.7187 29.1396 37.7187C27.4139 37.7187 25.8608 37.238 24.4802 36.2766C23.0997 35.3151 22.1135 34.0455 21.5219 32.4677L25.8115 31.2844C26.1073 31.9253 26.5634 32.4184 27.1797 32.7635C27.796 33.1087 28.4493 33.2812 29.1396 33.2812C30.1873 33.2812 31.0656 32.9281 31.7744 32.2218C32.4831 31.5155 32.8375 30.6404 32.8375 29.5963C32.8375 28.5522 32.4831 27.6727 31.7744 26.9578C31.0656 26.2429 30.1873 25.8854 29.1396 25.8854Z" fill="white"/>
</svg>
