<svg width="60" height="60" viewBox="0 0 60 60" fill="none" xmlns="http://www.w3.org/2000/svg">
<path d="M29.5833 59.0927C26.0333 58.6983 22.4957 57.6752 18.9703 56.0234C15.445 54.3717 12.2771 52.079 9.46667 49.1453C6.65625 46.2116 4.37587 42.5877 2.62552 38.2734C0.875174 33.9592 0 28.943 0 23.2248V20.4125H2.81042C5.42361 20.4125 8.20938 20.9179 11.1677 21.9286C14.126 22.9394 16.7392 24.2337 19.0073 25.8115C19.4017 21.374 20.5851 16.8009 22.5573 12.0922C24.5295 7.38351 26.8715 3.35278 29.5833 0C32.2951 3.35278 34.6372 7.38351 36.6094 12.0922C38.5816 16.8009 39.7649 21.374 40.1594 25.8115C42.4274 24.3323 45.0406 23.0627 47.999 22.0026C50.9573 20.9425 53.7431 20.4125 56.3563 20.4125H59.1667V23.2248C59.1667 28.943 58.2915 33.9592 56.5411 38.2734C54.7908 42.5877 52.5104 46.2116 49.7 49.1453C46.8896 52.079 43.7217 54.3717 40.1964 56.0234C36.671 57.6752 33.1333 58.6983 29.5833 59.0927ZM30.175 54.5813C29.6326 45.4104 26.9851 38.4538 22.2324 33.7114C17.4796 28.969 11.5727 26.0398 4.51146 24.924C5.15243 34.4399 7.92587 41.5399 12.8318 46.224C17.7377 50.908 23.5188 53.6938 30.175 54.5813ZM29.5094 36.4615C30.1997 35.1795 31.1488 33.799 32.3568 32.3198C33.5648 30.8406 34.7358 29.608 35.8698 28.6219C36.1163 25.2691 35.6233 21.867 34.3906 18.4156C33.158 14.9642 31.5556 11.3896 29.5833 7.69167C27.6111 11.3896 26.0087 14.9642 24.776 18.4156C23.5434 21.867 23.0503 25.2691 23.2969 28.6219C24.4309 29.608 25.5773 30.8406 26.7359 32.3198C27.8946 33.799 28.8191 35.1795 29.5094 36.4615ZM34.6125 53.324C36.9299 52.4858 39.2349 51.3764 41.5276 49.9958C43.8203 48.6153 45.8911 46.8156 47.7401 44.5969C49.5891 42.3781 51.1422 39.654 52.3995 36.4245C53.6568 33.195 54.4087 29.3615 54.6552 24.924C49.4288 25.7622 44.8188 27.6234 40.825 30.5078C36.8313 33.3922 33.8976 36.9545 32.024 41.1948C32.6156 43.0684 33.1333 44.9543 33.5771 46.8526C34.0208 48.7509 34.366 50.908 34.6125 53.324Z" fill="white"/>
</svg>
