<svg width="26" height="26" viewBox="0 0 26 26" fill="none" xmlns="http://www.w3.org/2000/svg">
<path d="M12.9999 13C13.5958 13 14.106 12.7877 14.5307 12.363C14.9553 11.9383 15.1673 11.4284 15.1666 10.8333C15.1666 10.2375 14.9543 9.72726 14.5296 9.30259C14.1049 8.87792 13.595 8.66595 12.9999 8.66667C12.4041 8.66667 11.8938 8.87901 11.4692 9.30367C11.0445 9.72834 10.8325 10.2382 10.8333 10.8333C10.8333 11.4292 11.0456 11.9394 11.4703 12.3641C11.8949 12.7888 12.4048 13.0007 12.9999 13ZM12.9999 23.8333C10.093 21.3597 7.92197 19.0623 6.48692 16.9412C5.05186 14.82 4.33397 12.8563 4.33325 11.05C4.33325 8.34167 5.20461 6.18403 6.94734 4.57709C8.69006 2.97014 10.7076 2.16667 12.9999 2.16667C15.293 2.16667 17.3109 2.97014 19.0536 4.57709C20.7963 6.18403 21.6673 8.34167 21.6666 11.05C21.6666 12.8556 20.9487 14.8193 19.5129 16.9412C18.0771 19.0631 15.9061 21.3605 12.9999 23.8333Z" fill="#ffffff"/>
</svg>
