<svg width="26" height="26" viewBox="0 0 26 26" fill="none" xmlns="http://www.w3.org/2000/svg">
<path d="M4.33342 21.6667C3.73758 21.6667 3.22733 21.4543 2.80267 21.0297C2.378 20.605 2.16603 20.0951 2.16675 19.5V6.5C2.16675 5.90416 2.37908 5.39391 2.80375 4.96925C3.22842 4.54458 3.73831 4.33261 4.33342 4.33333H21.6668C22.2626 4.33333 22.7728 4.54566 23.1975 4.97033C23.6222 5.395 23.8341 5.90489 23.8334 6.5V19.5C23.8334 20.0958 23.6211 20.6061 23.1964 21.0307C22.7718 21.4554 22.2619 21.6674 21.6668 21.6667H4.33342ZM13.0001 13.8937C13.0904 13.8937 13.1853 13.88 13.285 13.8526C13.3847 13.8251 13.4793 13.7847 13.5688 13.7312L21.2334 8.9375C21.3779 8.84722 21.4862 8.73419 21.5584 8.59841C21.6306 8.46264 21.6668 8.31386 21.6668 8.15208C21.6668 7.79097 21.5133 7.52014 21.2063 7.33958C20.8994 7.15902 20.5834 7.16805 20.2584 7.36666L13.0001 11.9167L5.74175 7.36666C5.41675 7.16805 5.10078 7.16372 4.79383 7.35366C4.48689 7.54361 4.33342 7.80975 4.33342 8.15208C4.33342 8.33264 4.36953 8.4908 4.44175 8.62658C4.51397 8.76236 4.62231 8.866 4.76675 8.9375L12.4313 13.7312C12.5216 13.7854 12.6166 13.8262 12.7163 13.8537C12.8159 13.8811 12.9105 13.8945 13.0001 13.8937Z" fill="#ffffff"/>
</svg>
