<svg width="26" height="26" viewBox="0 0 26 26" fill="none" xmlns="http://www.w3.org/2000/svg">
<path d="M20.8325 16.5317L18.0809 16.2175C17.7573 16.1795 17.4294 16.2153 17.1217 16.3223C16.8139 16.4292 16.5345 16.6045 16.3042 16.835L14.3109 18.8283C11.2355 17.2642 8.73581 14.7645 7.17171 11.6892L9.17588 9.685C9.64171 9.21917 9.86921 8.56917 9.79338 7.90834L9.47921 5.17834C9.41779 4.64986 9.16417 4.16242 8.76663 3.80884C8.3691 3.45525 7.85541 3.2602 7.32338 3.26084H5.44921C4.22504 3.26084 3.20671 4.27917 3.28254 5.50334C3.85671 14.755 11.2559 22.1433 20.4967 22.7175C21.7209 22.7933 22.7392 21.775 22.7392 20.5508V18.6767C22.75 17.5825 21.9267 16.6617 20.8325 16.5317Z" fill="#289E34"/>
</svg>
