<svg width="140" height="28" viewBox="0 0 140 28" fill="none" xmlns="http://www.w3.org/2000/svg">
<path d="M13.1093 1.74536C13.4804 1.01811 14.5196 1.01811 14.8907 1.74536L17.9655 7.7705C18.1108 8.05522 18.3835 8.25332 18.6992 8.30352L25.3796 9.36599C26.186 9.49423 26.5071 10.4825 25.9301 11.0602L21.15 15.8464C20.9241 16.0726 20.82 16.3931 20.8698 16.7089L21.9237 23.3907C22.0509 24.1972 21.2102 24.808 20.4825 24.4378L14.4534 21.3707C14.1685 21.2257 13.8315 21.2257 13.5466 21.3707L7.51751 24.4378C6.78978 24.808 5.94909 24.1972 6.0763 23.3907L7.1302 16.7089C7.18 16.3931 7.07585 16.0726 6.84997 15.8464L2.0699 11.0602C1.49293 10.4825 1.81405 9.49423 2.62039 9.36599L9.30081 8.30352C9.6165 8.25332 9.88915 8.05522 10.0345 7.7705L13.1093 1.74536Z" fill="#419FC4"/>
<path d="M41.1093 1.74536C41.4804 1.01811 42.5196 1.01811 42.8907 1.74536L45.9655 7.7705C46.1108 8.05522 46.3835 8.25332 46.6992 8.30352L53.3796 9.36599C54.186 9.49423 54.5071 10.4825 53.9301 11.0602L49.15 15.8464C48.9241 16.0726 48.82 16.3931 48.8698 16.7089L49.9237 23.3907C50.0509 24.1972 49.2102 24.808 48.4825 24.4378L42.4534 21.3707C42.1685 21.2257 41.8315 21.2257 41.5466 21.3707L35.5175 24.4378C34.7898 24.808 33.9491 24.1972 34.0763 23.3907L35.1302 16.7089C35.18 16.3931 35.0759 16.0726 34.85 15.8464L30.0699 11.0602C29.4929 10.4825 29.814 9.49423 30.6204 9.36599L37.3008 8.30352C37.6165 8.25332 37.8892 8.05522 38.0345 7.7705L41.1093 1.74536Z" fill="#419FC4"/>
<path d="M97.1093 1.74536C97.4804 1.01811 98.5196 1.01811 98.8907 1.74536L101.966 7.7705C102.111 8.05522 102.384 8.25332 102.699 8.30352L109.38 9.36599C110.186 9.49423 110.507 10.4825 109.93 11.0602L105.15 15.8464C104.924 16.0726 104.82 16.3931 104.87 16.7089L105.924 23.3907C106.051 24.1972 105.21 24.808 104.482 24.4378L98.4534 21.3707C98.1685 21.2257 97.8315 21.2257 97.5466 21.3707L91.5175 24.4378C90.7898 24.808 89.9491 24.1972 90.0763 23.3907L91.1302 16.7089C91.18 16.3931 91.0759 16.0726 90.85 15.8464L86.0699 11.0602C85.4929 10.4825 85.814 9.49423 86.6204 9.36599L93.3008 8.30352C93.6165 8.25332 93.8892 8.05522 94.0345 7.7705L97.1093 1.74536Z" fill="#419FC4"/>
<path d="M69.1093 1.74536C69.4804 1.01811 70.5196 1.01811 70.8907 1.74536L73.9655 7.7705C74.1108 8.05522 74.3835 8.25332 74.6992 8.30352L81.3796 9.36599C82.186 9.49423 82.5071 10.4825 81.9301 11.0602L77.15 15.8464C76.9241 16.0726 76.82 16.3931 76.8698 16.7089L77.9237 23.3907C78.0509 24.1972 77.2102 24.808 76.4825 24.4378L70.4534 21.3707C70.1685 21.2257 69.8315 21.2257 69.5466 21.3707L63.5175 24.4378C62.7898 24.808 61.9491 24.1972 62.0763 23.3907L63.1302 16.7089C63.18 16.3931 63.0759 16.0726 62.85 15.8464L58.0699 11.0602C57.4929 10.4825 57.814 9.49423 58.6204 9.36599L65.3008 8.30352C65.6165 8.25332 65.8892 8.05522 66.0345 7.7705L69.1093 1.74536Z" fill="#419FC4"/>
<path d="M125.109 1.74536C125.48 1.01811 126.52 1.01811 126.891 1.74536L129.966 7.7705C130.111 8.05522 130.384 8.25332 130.699 8.30352L137.38 9.36599C138.186 9.49423 138.507 10.4825 137.93 11.0602L133.15 15.8464C132.924 16.0726 132.82 16.3931 132.87 16.7089L133.924 23.3907C134.051 24.1972 133.21 24.808 132.482 24.4378L126.453 21.3707C126.169 21.2257 125.831 21.2257 125.547 21.3707L119.518 24.4378C118.79 24.808 117.949 24.1972 118.076 23.3907L119.13 16.7089C119.18 16.3931 119.076 16.0726 118.85 15.8464L114.07 11.0602C113.493 10.4825 113.814 9.49423 114.62 9.36599L121.301 8.30352C121.616 8.25332 121.889 8.05522 122.034 7.7705L125.109 1.74536Z" fill="#C4C4C5"/>
</svg>
