<svg width="60" height="57" viewBox="0 0 60 57" fill="none" xmlns="http://www.w3.org/2000/svg">
<path d="M43.8571 54.1464L33.7857 44.0876L36.7857 41.0914L43.8571 48.0826L57 35.0275L60 38.0951L43.8571 54.1464ZM32.8571 57C27.5238 57 23.0952 55.1333 19.5714 51.3999C16.0476 47.6665 14.2857 43.2078 14.2857 38.0238V35.5269C10.2381 35.0038 6.84524 33.2084 4.10714 30.1408C1.36905 27.0732 0 23.4468 0 19.2616V2.85357H8.57143V0H12.8571V9.98748H8.57143V7.13392H4.28571V19.2616C4.28571 22.6383 5.46429 25.5038 7.82143 27.8579C10.1786 30.2121 13.0476 31.3892 16.4286 31.3892C19.8095 31.3892 22.6786 30.2121 25.0357 27.8579C27.3929 25.5038 28.5714 22.6383 28.5714 19.2616V7.13392H24.2857V9.98748H20V0H24.2857V2.85357H32.8571V19.2616C32.8571 23.4468 31.4881 27.0732 28.75 30.1408C26.0119 33.2084 22.619 35.0038 18.5714 35.5269V38.0238C18.5714 42.0663 19.9167 45.5263 22.6071 48.4036C25.2976 51.281 28.7143 52.7196 32.8571 52.7196V57Z" fill="white"/>
</svg>
